# xmcd
#
# Track frame offsets: 
#        150
#        18036
#        36889
#        58255
#        74680
#        83580
#        100059
#        116662
#
# Disc length: 1793 seconds
#
# Revision: 0
# Processed by: cddbd v1.5.2PL0 Copyright (c) Steve Scherf et al.
# Submitted via: ExactAudioCopy v0.99pb4
#
DISCID=6306ff08
DTITLE=Fly Away Sparrow - Space and Material
DYEAR=2009
DGENRE=Country
TTITLE0=Negotiate the Gray
TTITLE1=Space and Material
TTITLE2=Emancipate Me
TTITLE3=We Know it Out Loud
TTITLE4=Not Alone, No
TTITLE5=Ocean to Land
TTITLE6=One Dream Left
TTITLE7=Open Window
EXTD=
EXTT0=
EXTT1=
EXTT2=
EXTT3=
EXTT4=
EXTT5=
EXTT6=
EXTT7=
PLAYORDER=
